<svg width="48" height="48" viewBox="0 0 48 48" fill="none" xmlns="http://www.w3.org/2000/svg">
<g clip-path="url(#clip0_102_316)">
<path d="M14.0482 17.7662L12.6801 16.3982C11.7655 15.4837 11.7655 13.9986 12.6801 13.0842L21.072 4.68584C21.9866 3.77139 23.4718 3.77139 24.3864 4.68584L25.7546 6.06118C26.6691 6.97563 26.6691 8.4607 25.7546 9.37515L17.3626 17.7662C16.448 18.6806 14.9628 18.6806 14.0482 17.7662ZM21.833 22.0312L19.5356 19.7341L27.73 11.5406L36.4659 20.2754L28.2714 28.4689L25.9741 26.1718L8.99989 43.1441C7.85852 44.2853 6.00746 44.2853 4.85877 43.1441C3.71009 42.0028 3.7174 40.152 4.85877 39.0034L21.833 22.0312ZM30.2396 33.9483C29.325 33.0339 29.325 31.5488 30.2396 30.6344L38.6315 22.2433C39.5461 21.3289 41.0314 21.3289 41.9459 22.2433L43.3141 23.6114C44.2286 24.5258 44.2286 26.0109 43.3141 26.9253L34.9221 35.3237C34.0075 36.2381 32.5223 36.2381 31.6077 35.3237L30.2396 33.9557V33.9483Z" fill="#006045"/>
</g>
<defs>
<clipPath id="clip0_102_316">
<rect width="48" height="48" rx="8" fill="white"/>
</clipPath>
</defs>
</svg>
